<?xml version="1.0" encoding="UTF-8"?>
<svg id="AirPlus_Logotype_Black_RGB" xmlns="http://www.w3.org/2000/svg" version="1.1" viewBox="0 0 1661.7031 691.9002">
  <!-- Generator: Adobe Illustrator 29.6.1, SVG Export Plug-In . SVG Version: 2.1.1 Build 9)  -->
  <defs>
    <style>
      .st0 {
        font-family: AirPlusSans-Book, 'AirPlus Sans';
        font-size: 110.4304px;
      }
    </style>
  </defs>
  <path d="M97.5442,28.1891L.4485,393.6033h93.4416l21.4028-93.4416h117.9766l21.4028,93.4416h93.4416L250.4962,28.1891H97.5442ZM131.4756,232.299l42.8057-185.8392,42.8057,185.8392h-85.6113ZM363.7664,0h88.7434v73.0828h-88.7434V0ZM363.7664,101.2719h88.7434v292.3314h-88.7434V101.2719ZM483.829,101.2719h88.7434v292.3314h-88.7434V101.2719ZM837.7527,28.1891h-139.9004v365.4142h90.8305v-121.6307h49.0699c91.3536,0,143.0336-42.8057,143.0336-120.5867,0-78.8251-51.68-123.1968-143.0336-123.1968ZM837.7527,204.1099h-49.0699v-105.9702h49.0699c33.4093,0,50.1139,17.7487,50.1139,53.2461,0,34.4533-16.7046,52.7241-50.1139,52.7241ZM1004.7992,28.1891h88.7434v365.4142h-88.7434V28.1891ZM1306.5248,101.2719h88.7434v292.3314h-88.7434V101.2719ZM1660.4485,299.6397c0,61.5984-48.5479,98.6618-121.1088,98.6618-73.6048,0-120.0646-38.6295-120.0646-98.6618h87.6994c2.0881,24.5349,15.6605,36.0194,39.1515,36.0194,19.8368,0,31.8433-7.8303,31.8433-22.4469,0-52.7241-153.474-8.8744-153.474-119.5427,0-60.5543,45.9378-97.6178,115.3665-97.6178,67.8626,0,111.7123,34.9754,111.7123,89.7875h-83.5232c0-17.2267-11.4845-27.1451-31.3213-27.1451-18.7927,0-29.7551,7.3083-29.7551,21.4028,0,49.5919,153.4739,10.4404,153.4739,119.5427ZM666.5361,99.1838h6.2642v90.8316h-14.0946c-37.5855,0-59.5103,2.0881-79.8691,8.3523,9.3964-66.2966,39.1515-99.1839,87.6994-99.1839ZM1264.7632,328.3508c12.5285,0,25.579-2.6101,35.4974-6.7863-8.3523,48.0259-36.5414,77.259-85.6113,77.259-54.8121,0-87.6994-36.0194-87.6994-98.6618V101.2719h88.7434v178.531c0,30.7992,16.1826,48.5479,49.0699,48.5479Z"/>
  <text class="st0" transform="translate(-5 672.0035)"><tspan x="0" y="0">Corporate payments made human</tspan></text>
</svg>