<svg version="1.1" id="Layer_1" xmlns="http://www.w3.org/2000/svg" xmlns:xlink="http://www.w3.org/1999/xlink" x="0px" y="0px" viewBox="0 0 93.9 25" style="enable-background:new 0 0 93.9 25;" xml:space="preserve">
 <style type="text/css">
  .st0{fill:#CC071E;}
 </style>
 <g>
  <path class="st0" d="M90.8,0c1.4,0,2.1,0.7,2.1,2.1v1.8c0,1.4-0.7,2-2.1,2h-7.1v3.6h6c1.4,0,2.1,0.7,2.1,2.1v1.8c0,1.4-0.7,2-2.1,2
		h-6v3.8h8.2c1.4,0,2.1,0.7,2.1,2.1V23c0,1.4-0.7,2-2.1,2H78c-1.4,0-2-0.7-2-2V2.1c0-1.4,0.7-2.1,2-2.1H90.8z M47.1,0
		c1.6,0,2.3,0.6,2.5,2l2,12.3h0.1L54.3,2c0.3-1.4,1-2,2.5-2h3.1c1.5,0,2.2,0.6,2.5,2L65,14.3H65l2-12.3c0.2-1.4,0.9-2,2.5-2h2.6
		c1.2,0,1.9,0.5,1.9,1.7c0,0.2,0,0.5-0.1,0.8L69.2,23c-0.3,1.4-1,2-2.7,2h-3c-1.5,0-2.2-0.6-2.5-2L58.2,9.6h-0.1L55.4,23
		c-0.3,1.4-1,2-2.5,2h-3c-1.7,0-2.4-0.7-2.7-2L42.3,2.5c-0.1-0.3-0.1-0.5-0.1-0.8c0-1.1,0.7-1.7,1.9-1.7H47.1z M38.3,0
		c1.4,0,2.1,0.7,2.1,2.1v1.8c0,1.4-0.7,2-2.1,2h-7.1v3.6h6c1.4,0,2.1,0.7,2.1,2.1v1.8c0,1.4-0.7,2-2.1,2h-6v3.8h8.2
		c1.4,0,2.1,0.7,2.1,2.1V23c0,1.4-0.7,2-2.1,2H25.5c-1.4,0-2-0.7-2-2V2.1c0-1.4,0.7-2.1,2-2.1H38.3z M9.5,0c7.7,0,10.6,2.9,10.6,7.9
		c0,2.9-1.5,5.4-5,6.7l5.4,7.9c0.3,0.5,0.4,0.9,0.4,1.2c0,0.8-0.9,1.3-1.9,1.3h-4.4c-1.2,0-1.9-0.6-2.8-2l-4.3-7.5H7.6V23
		c0,1.4-0.7,2-2.1,2H2c-1.4,0-2-0.7-2-2V2.1C0,0.7,0.7,0,2,0H9.5z M9.2,5.7H7.6V11h1.6c2.2,0,3.1-0.9,3.1-2.6S11.3,5.7,9.2,5.7
		L9.2,5.7z M9.2,5.7">
  </path>
 </g>
</svg>